#!OML:ASF E:/inclinewalkrobotboard/Project1/Captureday1/Session1/subject1.ASF
:FULLY-SPECIFIED
:DEGREES
163
root 0 0 0 -0.5094705647524168 -3.0168147687179405 -0.19530643344044585
lowerback 11.216146821099784 0.6352731430980524 0.399704916563818
upperback -1.9401402511603645 0.928333272925164 0.4975909046580141
thorax -8.372964500935353 0.43216785545904574 0.10984887072344046
lowerneck -11.417554059404381 -0.632389065708733 1.3467728863654935
upperneck 18.859984035356927 -0.2542947437765868 -3.8975798045985064
head 7.824222122670593 -0.3161708993973895 -1.569251361476709
rclavicle -5.483612097499885E-16 -6.19844584539687E-16
rhumerus -0.5202651663138305 0.9125642777412928 -60.209586160949385
rradius 53.343588694486634
rwrist 17.455033788278005
rhand -27.243388069146494 -23.440843392894863
rfingers 7.125019999999925
rthumb -0.8366450088611197 -53.5775237812082
lclavicle -4.900318295192097E-16 -6.929324772612452E-16
lhumerus -1.2936999083567056 -6.9252637076734365 60.486898921801654
lradius 52.63858937800696
lwrist -11.133062185359055
lhand -37.27036028354282 -31.221890347749266
lfingers 7.12501999999992
lthumb -10.372932304918487 -1.6683773158445732
rfemur -21.38241452439989 -0.34089763119417427 19.54527802076254
rtibia 50.613281281701845
rfoot -22.767852448559676 -13.852682670781459
rtoes -12.225459206110894
lfemur -23.1323886327336 1.5483832773199246 -18.141599146955215
ltibia 50.12975972546267
lfoot -25.962431187246956 -3.6534166158789687
ltoes -16.723554397628504
164
root 0 0 0 -0.5092179308964603 -3.016886200480771 -0.1950256167289408
lowerback 11.216243916105217 0.6353107278960786 0.3996339080720056
upperback -1.9404706768431728 0.9283553426114918 0.49743654915287067
thorax -8.37336697898295 0.43217859935133734 0.10971883013048478
lowerneck -11.41684558819115 -0.632096511396835 1.3471957523047495
upperneck 18.859926020971596 -0.25384719757288665 -3.8981497463226997
head 7.824085791358652 -0.31597310045973026 -1.569464829541017
rclavicle -5.483284231462795E-16 -6.1976031588599175E-16
rhumerus -0.527288597032328 0.90794503487027 -60.21380406519553
rradius 53.33717446176875
rwrist 17.451788921159647
rhand -27.24103591241414 -23.429609077162112
rfingers 7.125019999999925
rthumb -0.8344459254481249 -53.566361801759356
lclavicle -4.901554489914501E-16 -6.928915160793922E-16
lhumerus -1.3011361713318372 -6.923489947715485 60.492141920176344
lradius 52.63287435341814
lwrist -11.129178631633033
lhand -37.26787844320907 -31.20892635772269
lfingers 7.12501999999992
lthumb -10.370561563159928 -1.6552905851029927
rfemur -21.384417013471317 -0.3421106765306736 19.543651142087235
rtibia 50.61591660221848
rfoot -22.771435065771914 -13.854431395531336
rtoes -12.229260106305677
lfemur -23.129405374081877 1.5476545868387386 -18.14191179080459
ltibia 50.12608016341153
lfoot -25.95825366455837 -3.653223069368276
ltoes -16.72080046198775
165
root 0 0 0 -0.5121537298812697 -3.015967000386722 -0.19793121441745376
lowerback 11.215151484949335 0.6348431939933302 0.4002489901522584
upperback -1.9367524594329586 0.9279502081406593 0.4991164783210568
thorax -8.368634156092988 0.4320422653573426 0.1112048993176396
lowerneck -11.424764952389003 -0.6354376055674127 1.342302698393206
upperneck 18.860465336767316 -0.2588246573523221 -3.891691913777268
head 7.825551612311858 -0.3181467328321388 -1.567020340491629
rclavicle -5.486026470797645E-16 -6.203915032616382E-16
rhumerus -0.5194037843186443 0.9134308753385003 -60.20815068357168
rradius 53.34498103553777
rwrist 17.456053371499475
rhand -27.244099502958875 -23.444044366839286
rfingers 7.125019999999925
rthumb -0.8375927735460715 -53.581542139933205
lclavicle -4.90069188507793E-16 -6.937073308793854E-16
lhumerus -1.284219829088988 -6.92768973318897 60.48021815421595
lradius 52.648204662478264
lwrist -11.138350262619078
lhand -37.2742330409143 -31.23839727436198
lfingers 7.12501999999992
lthumb -10.37627120162006 -1.6870430099310738
rfemur -21.378477297232422 -0.3383513940822227 19.548581692451233
rtibia 50.607562008180714
rfoot -22.76037353957043 -13.848709369347757
rtoes -12.21716495149451
lfemur -23.12138095827862 1.5457471314971654 -18.142949700584435
ltibia 50.1166854493883
lfoot -25.94674454501676 -3.6529815188863406
ltoes -16.7139935386307
166
root 0 0 0 -0.510169093327824 -3.0165879840396217 -0.19601031066403862
lowerback 11.215875043809007 0.6351563148834922 0.39984836295546045
upperback -1.9392363830655728 0.9282440510048399 0.4980071112424442
thorax -8.371816505579524 0.43213587526679126 0.11022435870114061
lowerneck -11.419494832743293 -0.6331935920672075 1.3455897425705425
upperneck 18.86013414375827 -0.2555207831637849 -3.8960017168148564
head 7.824593703548427 -0.3167079099507416 -1.5686642035413163
rclavicle -5.4829403439395085E-16 -6.199518356105946E-16
rhumerus -0.5177444659698995 0.914250465104157 -60.20803786667287
rradius 53.345941421983156
rwrist 17.45625114333587
rhand -27.244264665464847 -23.444909277134315
rfingers 7.125019999999925
rthumb -0.8374799095051353 -53.58148051064031
lclavicle -4.899508222464814E-16 -6.930057880998657E-16
lhumerus -1.2876269286547668 -6.926748543192252 60.482623462865575
lradius 52.643355593648806
lwrist -11.1362264956968
lhand -37.27241732997187 -31.232608728411428
lfingers 7.12501999999992
lthumb -10.37487506878525 -1.6790371906011359
rfemur -21.37929335266129 -0.3389041930915897 19.547865207314814
rtibia 50.60881134212971
rfoot -22.761998944438183 -13.849868331109434
rtoes -12.219376654341296
lfemur -23.131465596378995 1.5481784326332955 -18.141663910826207
ltibia 50.128973901377215
lfoot -25.961221880099103 -3.653451518398808
ltoes -16.722797759826626
167
root 0 0 0 -0.5094644028041748 -3.016840161300547 -0.19532883178601057
lowerback 11.21615016013624 0.6352880809531216 0.39972835354118996
upperback -1.9401489197872137 0.928352283092865 0.4975860353199633
thorax -8.372973325620084 0.4321713871596317 0.10982895819700472
lowerneck -11.417541657032427 -0.632397413049972 1.3467785691041465
upperneck 18.859988674121293 -0.25429375776226704 -3.8975879908891926
head 7.8242225298739605 -0.31616652881394347 -1.56925294387679
rclavicle -5.483463685492269E-16 -6.198556243515579E-16
rhumerus -0.5192509542283688 0.9132388524596262 -60.20898888417313
rradius 53.344511081405074
rwrist 17.455487899482318
rhand -27.243722376676885 -23.442449477034693
rfingers 7.125019999999925
rthumb -0.8369554967341726 -53.57909728148691
lclavicle -4.900592342966384E-16 -6.929240532353776E-16
lhumerus -1.29519115644751 -6.924898582270327 60.4879326335923
lradius 52.637435638733834
lwrist -11.132292169651649
lhand -37.26986592991547 -31.21929719358821
lfingers 7.12501999999992
lthumb -10.37245835868432 -1.6657732726701155
rfemur -21.380906814752937 -0.33999525341370473 19.54649796231429
rtibia 50.61133191076622
rfoot -22.765176361235262 -13.85137825018913
rtoes -12.222632488502278
lfemur -23.13369198974694 1.5486973961160997 -18.14145404900565
ltibia 50.131308759048615
lfoot -25.96423176839069 -3.653476294775843
ltoes -16.724717165167874
168
root 0 0 0 -0.5091732645027156 -3.016924356237607 -0.1950081758575638
lowerback 11.216262235090772 0.6353323150892124 0.39964877273959976
upperback -1.9405299304959573 0.9283794080793757 0.4974084660935114
thorax -8.37343887669504 0.43218404416192135 0.10967790956298018
lowerneck -11.416726425108264 -0.6320606796099536 1.3472671216104408
upperneck 18.85992280379071 -0.2537785167951474 -3.898244420409346
head 7.824065484039281 -0.31593896813832834 -1.5694988800527696
rclavicle -5.483122072889105E-16 -6.197710480475023E-16
rhumerus -0.5262922343299525 0.9086088774052143 -60.213218664119125
rradius 53.33808045711156
rwrist 17.452232553073816
rhand -27.241363705685313 -23.431184700779966
rfingers 7.125019999999925
rthumb -0.8347497406788511 -53.56790253094602
lclavicle -4.901883397781861E-16 -6.928814824882561E-16
lhumerus -1.3029890724748796 -6.923036482429083 60.49342720356786
lradius 52.63143979483071
lwrist -11.128221619356362
lhand -37.267263821103164 -31.20570229157663
lfingers 7.12501999999992
lthumb -10.36997232466203 -1.6520512825207412
rfemur -21.38297918470664 -0.3412550708428257 19.54481090271188
rtibia 50.61407297591669
rfoot -22.76889410073776 -13.853191660777583
rtoes -12.226575879173364
lfemur -23.130538539286025 1.5479261396962527 -18.14178320374892
ltibia 50.12741151311393
lfoot -25.959809072213517 -3.6532715551957624
ltoes -16.721800712509165
169
root 0 0 0 -0.5089827172696061 -3.0169653869992143 -0.19477767508219346
lowerback 11.216334830120875 0.6353529367274762 0.3995774665910683
upperback -1.9407809082692231 0.9283847060560011 0.4972921886978197
thorax -8.373748765170946 0.43219045456545563 0.10959086728771694
lowerneck -11.416190633342154 -0.631827002644133 1.3475985460212991
upperneck 18.859874413163443 -0.25343228881509194 -3.898675658107782
head 7.823958626219511 -0.3157907973689995 -1.56966421175497
rclavicle -5.483474995082035E-16 -6.197130037066363E-16
rhumerus -0.5307990661911557 0.9056423161823322 -60.215917971431466
rradius 53.333946844071974
rwrist 17.450149752508423
rhand -27.239856455416167 -23.423989846552395
rfingers 7.125019999999925
rthumb -0.8333368469560076 -53.56076781439369
lclavicle -4.902292431079008E-16 -6.928539792067332E-16
lhumerus -1.3068717374207672 -6.922105396864891 60.49616923181594
lradius 52.628429555361485
lwrist -11.126192465128288
lhand -37.26596264351645 -31.198878556213558
lfingers 7.12501999999992
lthumb -10.368726896084318 -1.6451836030174327
rfemur -21.38562350380531 -0.34287428408839915 19.542645193359554
rtibia 50.61760642982574
rfoot -22.77367050485121 -13.855513171976703
rtoes -12.231619776394862
lfemur -23.12690635821286 1.5470367519522472 -18.142159918921607
ltibia 50.12294709097413
lfoot -25.954689613613272 -3.653069538888595
ltoes -16.71845280514833
170
root 0 0 0 -0.5119974320900751 -3.0159927930294175 -0.19773552636502878
lowerback 11.215211153338672 0.6348549052795892 0.4001847749902062
upperback -1.9369578186103125 0.9279498261581121 0.4990226513644184
thorax -8.368891120070764 0.43204650711177306 0.11113820198102786
lowerneck -11.424325513846522 -0.6352405484715282 1.3425757150095652
upperneck 18.860425844922208 -0.2585380941881532 -3.892048930666525
head 7.825462873841036 -0.31802517818311116 -1.5671566529720786
rclavicle -5.486219142728484E-16 -6.20365732753821E-16
rhumerus -0.5215440235291631 0.912018209046666 -60.20942678716597
rradius 53.34302609253058
rwrist 17.45507068780298
rhand -27.24338668014544 -23.44063383825177
rfingers 7.125019999999925
rthumb -0.8369253180617466 -53.57816847396943
lclavicle -4.90073168745544E-16 -6.937032337666119E-16
lhumerus -1.2851191201921015 -6.927475341983838 60.48085500800141
lradius 52.647503422501615
lwrist -11.137879889615196
lhand -37.27393038609917 -31.236812979862925
lfingers 7.12501999999992
lthumb -10.375981689400227 -1.6854389440063606
rfemur -21.38070311087766 -0.33970930188147763 19.54676171745683
rtibia 50.610521058203105
rfoot -22.764380547622856 -13.850656475489732
rtoes -12.221396617878582
lfemur -23.11873505933618 1.545100771415879 -18.143229349214867
ltibia 50.113453057343065
lfoot -25.94303060906432 -3.6528408671084645
ltoes -16.711570993058388
